<?xml version="1.0" encoding="UTF-8"?><svg id="b" xmlns="http://www.w3.org/2000/svg" viewBox="0 0 96 96"><path d="M82.6,16.83l-7.14-7.14c-1.24-1.24-3.24-1.24-4.48,0l-21.15,21.15c-1.01,1.01-2.65,1.01-3.66,0L25.13,9.8c-1.24-1.24-3.24-1.24-4.48,0l-7.14,7.14c-1.24,1.24-1.24,3.24,0,4.48l21.04,21.04c1.01,1.01,1.01,2.65,0,3.66l-21.15,21.15c-1.24,1.24-1.24,3.24,0,4.48l7.14,7.14c1.24,1.24,3.24,1.24,4.48,0l21.15-21.15c1.01-1.01,2.65-1.01,3.66,0l21.04,21.04c1.24,1.24,3.24,1.24,4.48,0l7.14-7.14c1.24-1.24,1.24-3.24,0-4.48l-21.04-21.04c-1.01-1.01-1.01-2.65,0-3.66l21.15-21.15c1.24-1.24,1.24-3.24,0-4.48Z"/></svg>