<?xml version="1.0" encoding="UTF-8"?><svg id="b" xmlns="http://www.w3.org/2000/svg" viewBox="0 0 96 96"><path d="M52.45,29.77c.92-.04,1.69,.7,1.69,1.62v35.01c0,2.64,.59,4.34,1.78,5.08,1.19,.75,1.96,1.12,6.27,1.12h.92v3.13c0,.89-.72,1.62-1.62,1.62h-26.99c-.89,0-1.62-.72-1.62-1.62v-3.13h.92c4.22,0,4.95-.38,6.14-1.12,1.19-.75,1.78-2.44,1.78-5.08v-22.97c0-2.82-.17-4.47-.83-5.26-.66-.79-2.1-1.34-4.85-1.34h-.79l-.21-4.69c-.04-.89,.65-1.65,1.55-1.69l15.85-.68Z"/><path d="M41.15,8.49c1.56-1.45,3.42-2.18,5.57-2.19,2.22,0,4.4,.91,5.96,2.49,1.78,1.82,2.56,4.05,2.32,6.69-.14,1.53-.74,3.02-1.71,4.21-1.73,2.12-3.95,3.17-6.67,3.17-2.19,0-4.1-.83-5.71-2.5-1.61-1.66-2.42-3.57-2.43-5.75,0-2.3,.99-4.56,2.67-6.13Z"/></svg>