<?xml version="1.0" encoding="UTF-8"?><svg id="b" xmlns="http://www.w3.org/2000/svg" viewBox="0 0 96 96"><path d="M27.4,1.53v14.64c0,1.33,1.59,2.03,2.57,1.13h0l4.48-4.11,.38-.35c.32-.29,.5-.7,.5-1.13v-2.27c0-.85,.69-1.53,1.53-1.53h35.21c.85,0,1.53,.69,1.53,1.53V74.99c0,.85-.69,1.53-1.53,1.53H36.85c-.85,0-1.53-.69-1.53-1.53v-2.27c0-.43-.18-.84-.5-1.13l-.38-.35-4.48-4.11c-.98-.9-2.57-.2-2.57,1.13v14.64c0,.85,.69,1.53,1.53,1.53h51.04c.85,0,1.53-.69,1.53-1.53V1.53C81.5,.69,80.82,0,79.97,0H28.93C28.09,0,27.4,.69,27.4,1.53Z"/><path d="M31.37,57.69l1.39,1.28c.98,.9,2.55,.2,2.55-1.12v-9.66c0-.84,.68-1.52,1.52-1.52h31.47v-8.88h-31.47c-.84,0-1.52-.68-1.52-1.52v-9.66c0-1.33-1.58-2.02-2.55-1.12l-1.39,1.28-3.97,3.63-1.31,1.21-1.18,1.08-9.19,8.42c-.66,.6-.66,1.64,0,2.25l9.19,8.42,1.18,1.08,1.31,1.21,3.97,3.63Z"/></svg>