<?xml version="1.0" encoding="UTF-8"?><svg id="b" xmlns="http://www.w3.org/2000/svg" viewBox="0 0 96 96"><path d="M14.21,57.38l-4.21-4.22c-.33-.33-.33-.88,0-1.21l4.26-4.26c.33-.34,.88-.33,1.21,0l2.93,2.94c.35,.35,.33,.92-.04,1.24h0c-.38,.34-.38,.94,0,1.28h0c.37,.34,.38,.91,.03,1.25l-3,2.98c-.34,.33-.88,.33-1.21,0Z"/><path d="M78.4,15.72h0c0-.53-.43-.95-.95-.95h-.04c-.53,0-.95-.43-.95-.95,0-.23,0-.45,0-.68,0-1.3,0-2.6,0-3.9,0-.26,.01-.46,.37-.46,.8,0,1.6,0,2.4,0,2.82,0,5.11,2.29,5.11,5.12v1.82c0,.53-.43,.95-.95,.95h-4.03c-.53,0-.95-.43-.95-.95Z"/><path d="M27.97,40.32c.54,.54,.54,1.41,0,1.95-1.74,1.74-3.52,3.52-5.3,5.3-.22,.22-.37,.22-.58,0-.97-.99-1.95-1.97-2.93-2.95-.54-.54-.54-1.41,0-1.95l4.6-4.61c.54-.54,1.42-.54,1.96,0l2.24,2.26Z"/><path d="M52.88,65.16l2.19,2.19c.54,.54,.54,1.41,0,1.95l-4.66,4.66c-.54,.54-1.44,.51-1.99-.06h-.01c-.91-.94-1.83-1.85-2.75-2.77-.19-.19-.37-.34-.09-.62,1.8-1.79,3.59-3.58,5.36-5.36,.54-.54,1.41-.54,1.95,0Z"/><path d="M83.33,35.43c.58,0,1.05,.47,1.05,1.06,0,1.18,0,2.35,0,3.52,0,.12-.11,.27-.2,.37-1.55,1.56-3.1,3.11-4.66,4.66-.04,.04-.09,.06-.11,.07l-3.43-3.49c-.4-.41-.41-1.08,0-1.48,.51-.52,1.05-1.05,1.61-1.59s.84-1.25,.83-2.01v-.02c0-.59,.46-1.08,1.06-1.08h3.86Z"/><path d="M51.41,17.15l-2.49-2.49c-.49-.49-.49-1.28,0-1.77,.9-.88,1.81-1.77,2.68-2.71s2.14-1.44,3.44-1.38c.48,.02,.96,.01,1.44,0,.7-.01,1.27,.55,1.27,1.24v3.47c0,.7-.57,1.25-1.27,1.25h-.02c-.64,0-1.25,.24-1.69,.71-.52,.56-1.05,1.11-1.58,1.66-.48,.5-1.28,.51-1.78,.02Z"/><path d="M45.66,18.14l2.2,2.21c.54,.54,.54,1.42,0,1.95l-4.58,4.58c-.54,.54-1.42,.54-1.96,0l-2.21-2.2c-.54-.54-.54-1.42,0-1.96l4.59-4.59c.54-.54,1.42-.54,1.96,0Z"/><path d="M66.29,49.89l4.6-4.59c.54-.54,1.41-.54,1.95,0l2.19,2.18c.54,.54,.54,1.42,0,1.96l-4.6,4.6c-.54,.54-1.41,.54-1.95,0l-2.19-2.19c-.54-.54-.54-1.41,0-1.95Z"/><path d="M35.81,28.16l2.03,2.04c.54,.54,.54,1.42,0,1.96l-4.6,4.6c-.54,.54-1.42,.54-1.96,0l-2.02-2.05c-.53-.54-.53-1.41,0-1.95l4.59-4.59c.54-.54,1.42-.54,1.96,0Z"/><path d="M58.47,63.96l-2.13-2.14c-.54-.54-.54-1.41,0-1.95l4.54-4.58c.54-.54,1.42-.55,1.96,0l2.15,2.15c.54,.54,.54,1.42,0,1.96l-4.57,4.56c-.54,.54-1.42,.54-1.96,0Z"/><rect x="78.44" y="21.37" width="5.9" height="9.36" rx="1.38" ry="1.38"/><path d="M63.8,8.82h6.62c.76,0,1.38,.62,1.38,1.38v4.53c-.16,.01-.3,.03-.44,.03-2.8,0-5.6-.01-8.4-.02-.24,0-.54,.09-.54-.33,0-1.39,0-2.78,0-4.19,0-.76,.62-1.39,1.38-1.39Z"/><path d="M18.82,59.92l2.07-2.07c.54-.54,1.41-.54,1.95,0l3.77,3.76c.54,.54,.55,1.42,0,1.96l-2.08,2.08c-.54,.54-1.42,.54-1.96,0l-3.77-3.76c-.54-.54-.54-1.42,0-1.96Z"/><path d="M35.31,72.24l-2.07,2.07c-.54,.54-1.41,.54-1.95,0l-3.74-3.74c-.54-.54-.54-1.41,0-1.95l2.07-2.09c.54-.54,1.42-.55,1.96,0l3.75,3.76c.54,.54,.54,1.42,0,1.96Z"/><path d="M45.66,78.82l-4.22,4.21c-.33,.33-.88,.33-1.21,0l-4.26-4.26c-.34-.33-.33-.88,0-1.21l2.94-2.93c.35-.35,.92-.33,1.24,.04h0c.34,.38,.94,.38,1.28,0h0c.33-.38,.9-.39,1.25-.04l2.98,3c.33,.34,.33,.88,0,1.21Z"/></svg>