<?xml version="1.0" encoding="UTF-8"?><svg id="b" xmlns="http://www.w3.org/2000/svg" viewBox="0 0 96 96"><polygon points="69.64 64.74 69.8 64.5 69.8 64.68 69.64 64.74"/><path d="M76.64,58.94c-4.94,13.46-18.28,21.58-32.37,19.84-14.93-1.86-25.75-13.97-26.65-28.18-.53-8.34,1.92-15.79,7.47-22.08,5.35-6.07,12.1-9.46,20.11-10.29,.49-.05,.86-.45,.86-.94v-6.7c0-.92,1.11-1.38,1.76-.73l10.95,10.94c.62,.62,.62,1.6,.01,2.21-3.6,3.6-7.26,7.25-10.95,10.93-.65,.65-1.75,.19-1.75-.73v-6.42c0-.58-.5-1.01-1.07-.95-7.44,.76-15.97,6.27-18.96,16.09-3.19,10.44,1.54,21.73,11.2,26.86,9.58,5.08,21.5,2.7,28.39-5.59,6.21-7.45,7.3-18.84,1.39-27.53-.68-1-.53-2.33,.37-3.13l2.08-1.84c1.06-.94,2.7-.74,3.52,.42,4.96,7.03,7.37,17.64,3.64,27.81Z"/></svg>