<?xml version="1.0" encoding="UTF-8"?><svg id="b" xmlns="http://www.w3.org/2000/svg" viewBox="0 0 256 256"><path d="M198.76,199.8c-13.22-9.52-32.48-17.25-49.89-21.02-.85-.18-1.44-.93-1.46-1.8-.27-14.3-7.81-27.19-19.56-27.19s-19.27,12.82-19.57,27.08c-.02,.87-.61,1.62-1.46,1.8-17.47,3.74-36.52,11.55-49.87,21.2-.76,.54-1.66-.46-1.04-1.16,25.26-28.94,45.36-62.5,58.84-99.25,.32-.86,1.29-1.25,2.12-.85,3.49,1.68,7.68,2.26,12.38,2.08-4.42-2.27-7.38-5.24-9.15-8.61-1.09-2.07-1.24-4.52-.53-6.76,2.96-9.41,5.49-18.98,7.57-28.75,.17-.81,1.31-.81,1.48,0,8.02,37.55,22.67,72.64,42.68,103.99,.59,.92,.08,2.14-.99,2.35-6.58,1.29-12.47,3.5-17.85,6.41,5.97-.64,11.3-.75,16.36-.2,5.52,.61,10.52,3.52,13.8,8.01,5.42,7.42,11.15,14.59,17.18,21.49,.61,.71-.28,1.71-1.03,1.16Z"/></svg>