<?xml version="1.0" encoding="UTF-8"?><svg id="b" xmlns="http://www.w3.org/2000/svg" viewBox="0 0 256 256"><path d="M196.2,98.21c0,16.73-10.71,30.97-25.65,36.24,1-1.94,1.55-4.12,1.55-6.45,0-4.3-1.89-8.16-4.89-10.78,6.99-3.47,11.81-10.7,11.81-19.01,0-6.21-2.68-11.81-6.94-15.69,3.72-1.79,6.61-5.13,7.72-9.3,.56-2.12,.62-4.26,.23-6.32,9.79,6.95,16.17,18.4,16.17,31.32Z"/><path d="M76.98,157.79c0,6.11,2.59,11.61,6.74,15.5-3.87,1.74-6.9,5.15-8.05,9.45-.53,1.98-.63,3.97-.34,5.9-9.42-7.01-15.52-18.21-15.52-30.85,0-16.73,10.71-30.97,25.65-36.24-1,1.94-1.55,4.14-1.55,6.46,0,4.26,1.89,8.13,4.9,10.76-7,3.47-11.82,10.7-11.82,19.03Z"/><path d="M174.27,71.74c-1.15,4.28-5.28,6.96-9.56,6.4-.18-.02-.38-.06-.57-.09-.18-.05-.37-.09-.56-.14-.44-.11-.86-.26-1.26-.45-1.45-.32-2.97-.49-4.52-.49-11.71,0-21.24,9.53-21.24,21.24v21.24h20.57s.09-.01,.14-.01h.06c.16-.02,.31-.02,.47-.02,.09,0,.18,0,.28,.01,.07,0,.13,0,.19,.01,4.52,.23,8.12,3.97,8.12,8.57s-3.85,8.59-8.59,8.59v.03h-21.24v18.69c.06,.81,.08,1.64,.08,2.46,0,21.21-17.19,38.42-38.42,38.42-3.01,0-5.93-.34-8.74-1.01-.7,0-1.41-.09-2.11-.29-.66-.17-1.28-.42-1.86-.73-.17-.09-.34-.19-.5-.3h-.01c-3.17-1.98-4.82-5.86-3.8-9.67,1.24-4.6,5.93-7.35,10.53-6.21,.06,.01,.1,.02,.16,.03t.02,.01c.23,.06,.47,.13,.7,.22,1.79,.49,3.68,.76,5.61,.76,11.71,0,21.24-9.53,21.24-21.24v-21.16h-21.24v-.03c-.11,0-.23,0-.34-.02-.09,.01-.19,0-.29-.01-4.44-.31-7.96-4.02-7.96-8.56s3.85-8.59,8.59-8.59c.22,0,.45,.01,.66,.03h20.57v-18.76c-.06-.82-.08-1.64-.08-2.47,0-21.21,17.2-38.42,38.42-38.42,2.97,0,5.84,.33,8.61,.97h.01c1.03,.24,2.03,.52,3.01,.82,.15,.05,.3,.09,.44,.14,3.56,1.84,5.49,5.98,4.41,10.01Z"/></svg>